<svg fill="none" xmlns="http://www.w3.org/2000/svg" viewBox="0 0 567 274">
  <path transform="scale(1 -1) rotate(-10.371 -686.468 -2832.97)" fill="url(#0ZJQF5YyTqz7a)" d="M0 0h43.407v112.212H0z"/>
  <path transform="rotate(169.629 541.242 169.742)" fill="url(#0ZJQF5YyTqz7b)" d="M541.242 169.742h43.407v111.462h-43.407z"/>
  <circle cx="519.866" cy="173.589" r="21.719" transform="rotate(169.629 519.866 173.589)" fill="#AE8FF7"/>
  <g filter="url(#0ZJQF5YyTqz7c)">
    <circle cx="519.866" cy="173.589" r="21.355" transform="rotate(169.629 519.866 173.589)" stroke="#AE8FF7" stroke-width=".73"/>
  </g>
  <path d="M63.375 196.736c-9.727 0-18.512-1.702-26.354-5.107-7.782-3.465-14.196-8.39-19.242-14.773-4.985-6.444-8.146-14.104-9.484-22.98l25.899-3.83c1.823 7.538 5.593 13.344 11.307 17.417 5.715 4.074 12.22 6.11 19.515 6.11 4.074 0 8.025-.638 11.855-1.915 3.83-1.277 6.961-3.161 9.393-5.654 2.493-2.492 3.739-5.562 3.739-9.21 0-1.338-.213-2.614-.638-3.83-.365-1.277-1.004-2.462-1.915-3.557-.912-1.094-2.22-2.127-3.922-3.1-1.641-.973-3.739-1.854-6.292-2.645L43.13 133.631c-2.553-.729-5.532-1.763-8.936-3.1-3.344-1.338-6.597-3.253-9.758-5.745-3.161-2.493-5.806-5.776-7.933-9.849-2.068-4.134-3.101-9.332-3.101-15.594 0-8.815 2.219-16.14 6.657-21.977 4.438-5.836 10.365-10.183 17.782-13.04 7.417-2.858 15.624-4.256 24.622-4.195 9.058.121 17.144 1.672 24.257 4.65 7.113 2.98 13.07 7.326 17.874 13.041 4.802 5.654 8.268 12.584 10.395 20.792l-26.81 4.559c-.973-4.255-2.766-7.842-5.38-10.76s-5.745-5.137-9.393-6.657a31.19 31.19 0 00-11.308-2.463c-3.89-.121-7.569.426-11.034 1.642-3.404 1.155-6.2 2.857-8.39 5.107-2.127 2.25-3.191 4.924-3.191 8.025 0 2.857.881 5.197 2.644 7.021 1.763 1.763 3.982 3.192 6.657 4.286a64.76 64.76 0 008.208 2.736l22.797 6.201c3.405.912 7.174 2.128 11.308 3.648 4.134 1.459 8.086 3.526 11.855 6.201 3.83 2.614 6.961 6.079 9.393 10.396 2.492 4.316 3.739 9.787 3.739 16.414 0 7.052-1.49 13.223-4.469 18.512-2.918 5.228-6.87 9.575-11.855 13.04-4.985 3.405-10.639 5.958-16.961 7.66-6.262 1.703-12.737 2.554-19.424 2.554zm74.576-114.901V59.949h24.804v21.886h-24.804zm0 112.165V95.513h24.804V194h-24.804zm111.235 0c-6.809 1.277-13.496 1.824-20.062 1.641-6.505-.121-12.341-1.246-17.509-3.374-5.106-2.188-8.997-5.684-11.672-10.487-2.432-4.498-3.709-9.058-3.83-13.678a615.204 615.204 0 01-.183-15.868V68.156h24.804v82.619c0 3.83.031 7.296.092 10.396.121 3.04.76 5.472 1.915 7.295 2.188 3.466 5.684 5.35 10.487 5.654 4.802.304 10.122.061 15.958-.729V194zm-70.035-79.337v-19.15h70.035v19.15h-70.035zm132.417 82.073c-10.092 0-18.998-2.158-26.719-6.475-7.66-4.377-13.679-10.365-18.056-17.965-4.316-7.66-6.474-16.414-6.474-26.263 0-10.76 2.127-20.123 6.383-28.087 4.256-7.964 10.122-14.134 17.6-18.512 7.478-4.438 16.08-6.656 25.807-6.656 10.335 0 19.12 2.431 26.354 7.295 7.235 4.863 12.585 11.703 16.05 20.518 3.465 8.815 4.681 19.18 3.648 31.096H331.63v-9.119c0-10.031-1.611-17.235-4.833-21.612-3.161-4.438-8.359-6.657-15.594-6.657-8.45 0-14.681 2.583-18.694 7.751-3.951 5.107-5.927 12.676-5.927 22.707 0 9.18 1.976 16.292 5.927 21.338 4.013 4.986 9.879 7.478 17.6 7.478 4.864 0 9.028-1.064 12.493-3.192 3.466-2.127 6.11-5.198 7.934-9.21l24.804 7.113c-3.708 8.998-9.575 15.989-17.6 20.974-7.964 4.985-16.688 7.478-26.172 7.478zm-32.646-45.049v-18.421h65.293v18.421h-65.293zM362.246 194l35.2-49.791-34.47-48.696h29.181l19.698 29.181 19.332-29.18h29.181l-34.47 48.695L461.28 194h-29.181l-20.244-30.276L391.428 194h-29.182zM149.4 253v-14.4h9.4v2.54h-6.68v3.08h5.48v2.54h-5.48v3.7h6.68V253h-9.4zm14.897 0l-4.4-14.4h2.8l3.6 11.84 3.66-11.84h2.8l-4.4 14.4h-4.06zm9.966 0v-14.4h9.4v2.54h-6.68v3.08h5.48v2.54h-5.48v3.7h6.68V253h-9.4zm11.797 0v-14.4h2.76l6.26 9.6v-9.6h2.76V253h-2.76l-6.26-9.6v9.6h-2.76zm17.91 0v-11.86h-4.54v-2.54h11.8v2.54h-4.54V253h-2.72zm17.706.3c-1.067 0-2.03-.187-2.89-.56a5.485 5.485 0 01-2.11-1.62c-.547-.707-.893-1.547-1.04-2.52l2.84-.42c.2.827.613 1.463 1.24 1.91.627.447 1.34.67 2.14.67.447 0 .88-.07 1.3-.21a2.53 2.53 0 001.03-.62c.273-.273.41-.61.41-1.01a1.25 1.25 0 00-.07-.42 1.06 1.06 0 00-.21-.39c-.1-.12-.243-.233-.43-.34a3.253 3.253 0 00-.69-.29l-3.74-1.1c-.28-.08-.607-.193-.98-.34a4.348 4.348 0 01-1.07-.63 3.272 3.272 0 01-.87-1.08c-.227-.453-.34-1.023-.34-1.71 0-.967.243-1.77.73-2.41.487-.64 1.137-1.117 1.95-1.43.813-.313 1.713-.467 2.7-.46.993.013 1.88.183 2.66.51.78.327 1.433.803 1.96 1.43.527.62.907 1.38 1.14 2.28l-2.94.5a2.6 2.6 0 00-.59-1.18 2.83 2.83 0 00-1.03-.73 3.406 3.406 0 00-1.24-.27 3.324 3.324 0 00-1.21.18c-.373.127-.68.313-.92.56-.233.247-.35.54-.35.88 0 .313.097.57.29.77.193.193.437.35.73.47s.593.22.9.3l2.5.68c.373.1.787.233 1.24.4.453.16.887.387 1.3.68.42.287.763.667 1.03 1.14.273.473.41 1.073.41 1.8 0 .773-.163 1.45-.49 2.03a4.236 4.236 0 01-1.3 1.43 6.087 6.087 0 01-1.86.84 8.073 8.073 0 01-2.13.28zm11.318-.3v-11.86h-4.54v-2.54h11.8v2.54h-4.54V253h-2.72zm7.476 0l4.4-14.4h4.06l4.4 14.4h-2.8l-3.92-12.7h.52l-3.86 12.7h-2.8zm2.64-3v-2.54h7.6V250h-7.6zm12.013 3v-14.4h8.8v2.72h-6.08v3.12h4.88v2.72h-4.88V253h-2.72zm10.605 0v-14.4h8.8v2.72h-6.08v3.12h4.88v2.72h-4.88V253h-2.72zm14.61 0v-14.4h2.44l4.76 9.56 4.76-9.56h2.44V253h-2.54v-8.6l-4.18 8.6h-.96l-4.18-8.6v8.6h-2.54zm16.207 0l4.4-14.4h4.06l4.4 14.4h-2.8l-3.92-12.7h.52l-3.86 12.7h-2.8zm2.64-3v-2.54h7.6V250h-7.6zm12.012 3v-14.4h2.76l6.26 9.6v-9.6h2.76V253h-2.76l-6.26-9.6v9.6h-2.76zm13.57 0l4.4-14.4h4.06l4.4 14.4h-2.8l-3.92-12.7h.52l-3.86 12.7h-2.8zm2.64-3v-2.54h7.6V250h-7.6zm17.622 3.3a7.06 7.06 0 01-2.59-.48 6.416 6.416 0 01-2.18-1.44c-.627-.633-1.123-1.417-1.49-2.35-.36-.933-.54-2.01-.54-3.23 0-1.593.303-2.947.91-4.06.613-1.12 1.433-1.973 2.46-2.56 1.033-.587 2.177-.88 3.43-.88 1.853 0 3.31.43 4.37 1.29 1.06.86 1.77 2.077 2.13 3.65l-2.78.4c-.26-.84-.687-1.51-1.28-2.01-.587-.507-1.34-.763-2.26-.77-.913-.013-1.673.183-2.28.59-.607.407-1.063.983-1.37 1.73-.3.747-.45 1.62-.45 2.62s.15 1.867.45 2.6c.307.733.763 1.303 1.37 1.71.607.407 1.367.617 2.28.63.62.013 1.18-.093 1.68-.32a3.127 3.127 0 001.28-1.07c.347-.487.593-1.11.74-1.87h-2.28v-2.1h5.18c.013.087.023.24.03.46.007.22.01.347.01.38 0 1.38-.28 2.603-.84 3.67a6.23 6.23 0 01-2.37 2.51c-1.02.6-2.223.9-3.61.9zm8.824-.3v-14.4h9.4v2.54h-6.68v3.08h5.48v2.54h-5.48v3.7h6.68V253h-9.4zm11.797 0v-14.4h2.44l4.76 9.56 4.76-9.56h2.44V253h-2.54v-8.6l-4.18 8.6h-.96l-4.18-8.6v8.6h-2.54zm17.207 0v-14.4h9.4v2.54h-6.68v3.08h5.48v2.54h-5.48v3.7h6.68V253h-9.4zm11.797 0v-14.4h2.76l6.26 9.6v-9.6h2.76V253h-2.76l-6.26-9.6v9.6h-2.76zm17.91 0v-11.86h-4.54v-2.54h11.8v2.54h-4.54V253h-2.72z" fill="#FBFBFB"/>
  <path transform="matrix(1 -.00182 .0074 .99997 1 220)" stroke="#fff" stroke-width="2" d="M0-1h544.001"/>
  <defs>
    <linearGradient id="0ZJQF5YyTqz7a" x1="21.704" y1="0" x2="21.704" y2="112.212" gradientUnits="userSpaceOnUse">
      <stop offset=".114" stop-color="#AE8FF7"/>
      <stop offset="1" stop-color="#AE8FF7" stop-opacity="0"/>
    </linearGradient>
    <linearGradient id="0ZJQF5YyTqz7b" x1="562.946" y1="169.742" x2="562.946" y2="281.205" gradientUnits="userSpaceOnUse">
      <stop offset=".114" stop-color="#AE8FF7"/>
      <stop offset="1" stop-color="#AE8FF7" stop-opacity="0"/>
    </linearGradient>
    <filter id="0ZJQF5YyTqz7c" x="490.847" y="144.57" width="58.038" height="58.037" filterUnits="userSpaceOnUse" color-interpolation-filters="sRGB">
      <feFlood flood-opacity="0" result="BackgroundImageFix"/>
      <feBlend mode="normal" in="SourceGraphic" in2="BackgroundImageFix" result="shape"/>
      <feGaussianBlur stdDeviation="3.648" result="effect1_foregroundBlur_246_2356"/>
    </filter>
  </defs>
</svg>
